<?xml version="1.0" encoding="UTF-8"?>
<svg version="1.1" xmlns="http://www.w3.org/2000/svg" width="553" height="551">
<path d="M0 0 C182.49 0 364.98 0 553 0 C553 181.83 553 363.66 553 551 C370.51 551 188.02 551 0 551 C0 369.17 0 187.34 0 0 Z " fill="#FEFEFE" transform="translate(0,0)"/>
<path d="M0 0 C4.6804589 1.5717959 9.85895816 5.23354132 12.09375 9.703125 C13.78996035 20.45864065 9.10847245 27.11009564 3.046875 35.5546875 C-9.91562596 52.34916867 -26.8738106 62.03803453 -46.90625 67.703125 C-47.51617294 67.87719376 -48.12609589 68.05126251 -48.75450134 68.23060608 C-50.98889126 68.72127283 -52.94967128 68.81710056 -55.234375 68.80078125 C-56.03359375 68.79755859 -56.8328125 68.79433594 -57.65625 68.79101562 C-58.48125 68.78263672 -59.30625 68.77425781 -60.15625 68.765625 C-60.99671875 68.76111328 -61.8371875 68.75660156 -62.703125 68.75195312 C-64.77086401 68.74020461 -66.83856624 68.72227022 -68.90625 68.703125 C-68.90402939 69.36837189 -68.90180878 70.03361877 -68.89952087 70.71902466 C-68.87707129 77.76189628 -68.86218167 84.80475745 -68.85131836 91.84765625 C-68.84634767 94.46191827 -68.83956879 97.07617761 -68.83081055 99.69042969 C-68.78878416 112.57522663 -68.77979379 125.44565044 -69.34765625 138.3203125 C-69.38664536 139.22097443 -69.42563446 140.12163635 -69.46580505 141.04959106 C-69.65324877 144.76280291 -69.98520416 148.09802247 -70.90625 151.703125 C-71.03186489 153.81296054 -71.10754791 155.92596561 -71.15234375 158.0390625 C-71.18376465 159.31604004 -71.21518555 160.59301758 -71.24755859 161.90869141 C-71.27061066 162.92687958 -71.27061066 162.92687958 -71.29412842 163.96563721 C-72.30095672 206.8282871 -73.52915658 255.14922537 -96.90625 292.703125 C-97.26138672 293.27933594 -97.61652344 293.85554688 -97.98242188 294.44921875 C-105.22519306 305.83624938 -115.92132975 314.10255905 -129.03125 317.765625 C-135.60671473 319.02400235 -142.22495103 319.46222981 -148.90625 319.703125 C-150.77603516 319.79980469 -150.77603516 319.79980469 -152.68359375 319.8984375 C-171.80607476 320.47153883 -192.11204652 315.75231793 -206.40722656 302.28955078 C-218.57638967 289.45387874 -231.89159103 268.825242 -232.40625 250.640625 C-232.19183532 246.57865803 -231.60240016 243.88073055 -228.90625 240.703125 C-228.33261719 240.01089844 -227.75898438 239.31867188 -227.16796875 238.60546875 C-223.56725736 235.57689112 -220.28183959 236.15206927 -215.75390625 236.328125 C-211.92051534 236.83293368 -210.32965214 237.67387233 -207.90625 240.703125 C-203.57116794 247.36115669 -199.90625 256.76744775 -199.90625 264.703125 C-199.24625 264.703125 -198.58625 264.703125 -197.90625 264.703125 C-196.43757557 266.88669391 -195.06848872 269.07291538 -193.71875 271.328125 C-190.38228183 276.69840328 -187.26965391 281.17753082 -181.90625 284.703125 C-181.34292969 285.08726562 -180.77960938 285.47140625 -180.19921875 285.8671875 C-171.86197827 291.09913525 -163.30051148 291.01737198 -153.78125 290.953125 C-152.62753906 290.96085937 -151.47382813 290.96859375 -150.28515625 290.9765625 C-149.16753906 290.97398437 -148.04992187 290.97140625 -146.8984375 290.96875 C-145.89151855 290.96649414 -144.88459961 290.96423828 -143.84716797 290.96191406 C-140.61608035 290.67759123 -137.96548466 289.74936351 -134.90625 288.703125 C-133.58625 288.703125 -132.26625 288.703125 -130.90625 288.703125 C-130.90625 288.043125 -130.90625 287.383125 -130.90625 286.703125 C-130.04 286.1875 -129.17375 285.671875 -128.28125 285.140625 C-115.73846609 277.11324329 -111.4218654 256.8162511 -108.33105469 243.16210938 C-107.60813362 239.79185388 -106.9061017 236.41904444 -106.24975586 233.03515625 C-106.10159424 232.28105469 -105.95343262 231.52695312 -105.80078125 230.75 C-105.67550049 230.08838867 -105.55021973 229.42677734 -105.42114258 228.74511719 C-104.90625 226.703125 -104.90625 226.703125 -103.87402344 224.37329102 C-102.69602061 221.12308492 -102.60070891 218.38788961 -102.52734375 214.93359375 C-102.49318359 213.63228516 -102.45902344 212.33097656 -102.42382812 210.99023438 C-102.39654664 209.62370954 -102.36985825 208.25717275 -102.34375 206.890625 C-102.28523743 204.2172719 -102.21966787 201.54425752 -102.15234375 198.87109375 C-102.11645142 197.09641724 -102.11645142 197.09641724 -102.07983398 195.28588867 C-101.92378983 192.0651462 -101.56413406 188.92722581 -101.13807678 185.73298645 C-100.75426435 182.37234777 -100.69148233 179.0034663 -100.625 175.625 C-100.58724069 174.11979164 -100.54948024 172.61458331 -100.51171875 171.109375 C-100.45797311 168.77020709 -100.40576068 166.43100959 -100.35400391 164.09179688 C-100.30216973 161.81109329 -100.24500966 159.53056642 -100.1875 157.25 C-100.17392456 156.55203308 -100.16034912 155.85406616 -100.1463623 155.13494873 C-100.06178209 151.8231748 -99.71125798 148.89881782 -98.90625 145.703125 C-98.68166791 142.95342694 -98.50719761 140.22320924 -98.37890625 137.46875 C-98.33758072 136.60896545 -98.29625519 135.74918091 -98.25367737 134.86334229 C-97.67757279 121.78064046 -97.55680318 108.68190987 -97.37402344 95.58898926 C-97.32288661 91.98116246 -97.26769261 88.37339765 -97.21289062 84.765625 C-97.10681781 77.74484579 -97.0050684 70.7240104 -96.90625 63.703125 C-97.99776367 63.55617187 -99.08927734 63.40921875 -100.21386719 63.2578125 C-110.8030196 61.66705911 -120.57822374 56.55789189 -130.13305664 51.94482422 C-135.6418593 49.28532502 -141.16618641 46.82705745 -146.90625 44.703125 C-147.94072266 44.31060547 -147.94072266 44.31060547 -148.99609375 43.91015625 C-150.31836399 43.41018075 -151.64250035 42.9151032 -152.96875 42.42578125 C-154.30729801 41.92652443 -155.64040543 41.41252181 -156.96875 40.88671875 C-157.649375 40.61988281 -158.33 40.35304687 -159.03125 40.078125 C-159.63195312 39.83835938 -160.23265625 39.59859375 -160.8515625 39.3515625 C-167.92508356 37.11923456 -175.3255975 37.48360588 -182.65625 37.453125 C-183.88085938 37.4325 -185.10546875 37.411875 -186.3671875 37.390625 C-196.26288614 37.34824513 -204.58721868 38.29922166 -212.59375 44.515625 C-213.50769531 45.21558594 -214.42164063 45.91554687 -215.36328125 46.63671875 C-217.54483527 48.40944084 -219.67437415 50.21804155 -221.78125 52.078125 C-225.92773666 55.66718303 -228.93809434 56.92999379 -234.46875 56.578125 C-237.67142908 56.13508773 -238.81393818 55.77292174 -241.46875 53.765625 C-242.90625 51.703125 -242.90625 51.703125 -242.90625 49.703125 C-243.56625 49.703125 -244.22625 49.703125 -244.90625 49.703125 C-246.82668415 45.8622567 -246.27583854 41.21843801 -245.28125 37.140625 C-239.31170125 26.55824313 -227.84050373 18.58720433 -216.90625 13.703125 C-215.39224609 13.00509766 -215.39224609 13.00509766 -213.84765625 12.29296875 C-192.37900483 3.99668688 -161.89260916 6.47611272 -140.90625 15.703125 C-139.58219874 16.27252504 -138.2579652 16.84150134 -136.93359375 17.41015625 C-133.54078974 18.87643595 -130.16067491 20.36942243 -126.78515625 21.875 C-124.95375278 22.68218822 -123.10977367 23.46065204 -121.265625 24.23828125 C-118.22498805 25.56414038 -115.33341308 27.02201819 -112.40625 28.578125 C-105.47081604 32.05876515 -98.33644338 34.54066005 -90.90625 36.703125 C-90.23432617 36.90212402 -89.56240234 37.10112305 -88.87011719 37.30615234 C-74.54919217 41.4399229 -59.62441088 43.67802481 -45.90625 36.703125 C-44.59782354 36.27383773 -43.2853044 35.85679799 -41.96875 35.453125 C-31.57711204 31.5825554 -21.96550267 22.99622583 -16.96875 13.203125 C-13.46687583 6.4687516 -8.45889113 -0.73847462 0 0 Z " fill="#050505" transform="translate(350.90625,162.296875)"/>
<path d="M0 0 C1.32 0 2.64 0 4 0 C4 180.84 4 361.68 4 548 C185.17 548 366.34 548 553 548 C553 548.99 553 549.98 553 551 C370.51 551 188.02 551 0 551 C0 369.17 0 187.34 0 0 Z " fill="#5D352C" transform="translate(0,0)"/>
<path d="M0 0 C3.09230572 2.80240206 4.74008973 4.91705679 5.3203125 9.1484375 C5.58787338 15.08828913 4.80184366 18.04073717 1 22.8125 C-1.59209624 25.25732205 -4.33115078 27.47840992 -7.125 29.6875 C-8.21748047 30.57695313 -8.21748047 30.57695313 -9.33203125 31.484375 C-14.72722854 35.8125 -14.72722854 35.8125 -17 35.8125 C-17.20625 36.575625 -17.4125 37.33875 -17.625 38.125 C-19.44889321 41.68988218 -21.43525355 42.05540866 -25 43.8125 C-27.13200378 45.36009666 -29.19592599 46.91992715 -31.25 48.5625 C-50.69409881 63.8125 -50.69409881 63.8125 -55 63.8125 C-55 65.1325 -55 66.4525 -55 67.8125 C-59.61502313 69.65850925 -64.07727511 70.93896137 -69 69.8125 C-72.68230013 68.03148081 -75.45148758 66.02683999 -78 62.8125 C-78.99658724 59.28967999 -78.67817713 56.37839911 -78 52.8125 C-77.86078125 52.03390625 -77.7215625 51.2553125 -77.578125 50.453125 C-75.3304656 41.64473006 -68.40688517 36.45995736 -61 31.8125 C-59.16000938 30.48836882 -57.3273431 29.15403124 -55.5 27.8125 C-52.69851926 25.76034005 -49.91760682 23.75928774 -47 21.875 C-44.17438444 19.9323893 -41.58208385 17.86785474 -38.9375 15.6875 C-34.71729231 12.21101743 -30.48404036 8.75655358 -26.1875 5.375 C-25.6608374 4.95009277 -25.1341748 4.52518555 -24.59155273 4.08740234 C-17.54013101 -1.41544135 -8.47803849 -3.35589024 0 0 Z " fill="#FD9007" transform="translate(461,87.1875)"/>
<path d="M0 0 C4.23855399 0.05045898 7.09385032 0.26265639 10.5 2.875 C16.89962009 9.91808326 15.76251636 20.70288061 15.88671875 29.6328125 C15.89611795 30.29984066 15.90551716 30.96686882 15.91520119 31.65410995 C15.96243551 35.17644081 15.99625817 38.69862998 16.02026367 42.22119141 C16.04809828 45.84132124 16.12747379 49.45847097 16.21780682 53.0775013 C16.27775242 55.88121745 16.29754015 58.68422261 16.30677223 61.48852158 C16.32386569 63.46694928 16.38446374 65.44484848 16.44596863 67.4223938 C16.40408117 76.21028702 16.40408117 76.21028702 13.37734985 79.81976318 C9.13477718 83.17290729 5.51472202 85.57918301 0.0625 85.625 C-0.69675781 85.63917969 -1.45601563 85.65335937 -2.23828125 85.66796875 C-5.10327614 85.39131622 -7.08438181 84.80391801 -9.625 83.4375 C-20.90294121 68.69166473 -17.89395318 37.75229491 -16.625 20.4375 C-15.75873891 14.56141715 -14.29188013 8.77126026 -11.625 3.4375 C-9.97295544 2.73538106 -8.30576231 2.06778587 -6.625 1.4375 C-4.84553528 -0.34196472 -2.41472343 0.09886585 0 0 Z " fill="#4BC219" transform="translate(337.625,48.5625)"/>
<path d="M0 0 C1.22589844 0.01353516 1.22589844 0.01353516 2.4765625 0.02734375 C3.41628906 0.04474609 3.41628906 0.04474609 4.375 0.0625 C4.375 0.7225 4.375 1.3825 4.375 2.0625 C5.08914063 2.16820312 5.80328125 2.27390625 6.5390625 2.3828125 C9.67538904 3.13449407 11.9596554 4.3304534 14.75 5.9375 C17.89319788 7.71004362 20.96571872 9.39827625 24.3125 10.75 C27.375 12.0625 27.375 12.0625 29.25 13.515625 C31.57338417 15.206912 33.74975586 16.12368355 36.4375 17.125 C39.441607 18.24984608 41.67955704 19.26553802 44.375 21.0625 C44.375 21.7225 44.375 22.3825 44.375 23.0625 C45.30119141 23.28292969 45.30119141 23.28292969 46.24609375 23.5078125 C54.08446283 25.5837276 61.97917835 28.86083474 66.375 36.0625 C67.42287191 40.52734554 67.33114526 44.49952121 64.91015625 48.45703125 C61.52463076 52.42947659 59.23547811 54.70885717 53.87890625 55.37109375 C46.46862297 55.6958472 41.72433224 54.24572424 35.2734375 50.65625 C31.79578597 48.74401035 28.23468471 47.32918019 24.53125 45.921875 C18.62839367 43.56928733 18.62839367 43.56928733 17.375 41.0625 C13.94452836 39.39605645 10.48588423 37.84520872 6.984375 36.3359375 C1.66746682 33.94610769 -2.40549633 31.07082076 -6.625 27.0625 C-7.5325 26.216875 -8.44 25.37125 -9.375 24.5 C-13.19392185 20.36283466 -14.92124584 17.84461108 -14.75 12.125 C-14.22619945 8.09113373 -13.2662659 6.1609793 -10.1875 3.5 C-6.63271541 0.88029444 -4.4374637 -0.06339234 0 0 Z " fill="#7F05FB" transform="translate(401.625,190.9375)"/>
<path d="M0 0 C3.27368473 2.64006833 4.34605837 4.51337606 4.8298645 8.65713501 C5.53272178 18.33588942 5.35147851 28.09580973 5.4050293 37.79760742 C5.42292127 40.73001243 5.45788937 43.66147 5.50756836 46.59350586 C5.56770048 50.14839632 5.59849006 53.70240153 5.60820198 57.25777626 C5.62090539 59.26323358 5.66294805 61.26843569 5.70542908 63.27348328 C5.68524371 72.13764407 5.68524371 72.13764407 3.62210083 74.73403931 C1.96118164 75.85668945 1.96118164 75.85668945 -1 77 C-1 76.01 -1 75.02 -1 74 C-0.34 74 0.32 74 1 74 C1 72.68 1 71.36 1 70 C1.66 70 2.32 70 3 70 C2.91547641 61.75889689 2.82054692 53.51800631 2.71247292 45.27718163 C2.66260923 41.45028659 2.6162787 37.62341783 2.578125 33.79638672 C2.54114625 30.10042215 2.49475293 26.40468287 2.44193649 22.7089119 C2.42345921 21.30162142 2.40832684 19.89428278 2.39665604 18.4869194 C2.37967974 16.50989981 2.3495138 14.53300698 2.31884766 12.55615234 C2.30552399 11.43252289 2.29220032 10.30889343 2.2784729 9.1512146 C1.98540469 5.83483866 1.17475974 3.10478226 0 0 Z " fill="#81CF62" transform="translate(348,53)"/>
<path d="M0 0 C-1.59757042 3.91129311 -4.22279452 6.35703704 -7.125 9.375 C-11.33299898 14.02896739 -12.67764015 17.26210154 -12.625 23.75 C-12.46683775 25.83774166 -12.27631216 27.92458868 -12 30 C-12.99 29.34 -13.98 28.68 -15 28 C-16.21815364 21.68232082 -15.07400586 14.62391892 -12 9 C-4.54067797 0 -4.54067797 0 0 0 Z " fill="#F8A336" transform="translate(398,122)"/>
<path d="M0 0 C1.21816406 0.03480469 1.21816406 0.03480469 2.4609375 0.0703125 C3.68683594 0.09738281 3.68683594 0.09738281 4.9375 0.125 C5.87722656 0.15980469 5.87722656 0.15980469 6.8359375 0.1953125 C6.8359375 0.8553125 6.8359375 1.5153125 6.8359375 2.1953125 C7.55007813 2.30101562 8.26421875 2.40671875 9 2.515625 C12.13632654 3.26730657 14.4205929 4.4632659 17.2109375 6.0703125 C20.35464825 7.84737645 23.40733089 9.51167494 26.7734375 10.8203125 C29.88236914 12.21615936 31.62770536 13.63376321 33.8359375 16.1953125 C31.1959375 15.5353125 28.5559375 14.8753125 25.8359375 14.1953125 C25.8359375 13.5353125 25.8359375 12.8753125 25.8359375 12.1953125 C25.10117187 12.07929688 24.36640625 11.96328125 23.609375 11.84375 C20.81211866 11.18974359 18.91585464 10.28262776 16.4609375 8.8203125 C9.57549944 4.88902278 3.73874905 2.71499852 -4.1640625 2.1953125 C-2.1640625 0.1953125 -2.1640625 0.1953125 0 0 Z " fill="#7F1BEB" transform="translate(399.1640625,190.8046875)"/>
<path d="M0 0 C0.66 0.33 1.32 0.66 2 1 C-13.09720885 16.36573628 -13.09720885 16.36573628 -18 18 C-20.25 17.625 -20.25 17.625 -22 17 C-9.06086957 6.56521739 -9.06086957 6.56521739 -3 3 C-1.24850835 1.41754725 -1.24850835 1.41754725 0 0 Z " fill="#F7B051" transform="translate(420,104)"/>
<path d="M0 0 C1 2 1 2 0.4375 4.375 C-1.43544564 7.79516161 -3.74933601 8.8533351 -7 11 C-8.81503974 13.07490226 -10.52214015 15.19696115 -12.19140625 17.390625 C-14 19 -14 19 -16.71484375 19.234375 C-17.84599609 19.11835937 -17.84599609 19.11835937 -19 19 C-14.99836225 14.86522088 -10.71039922 11.22568403 -6.19726562 7.66210938 C-3.35593448 5.35687845 -1.30328254 3.46209411 0 0 Z " fill="#FFECCF" transform="translate(465,104)"/>
<path d="M0 0 C0 3 0 3 -1.48828125 5.16796875 C-3.47756399 8.89466122 -3.33063102 12.20574066 -3.1875 16.3125 C-3.17396484 17.05306641 -3.16042969 17.79363281 -3.14648438 18.55664062 C-3.11135979 20.37141075 -3.05755972 22.18580288 -3 24 C-3.99 23.34 -4.98 22.68 -6 22 C-7.22934083 15.62430098 -5.86591128 8.76720418 -3 3 C-1.39453125 1.24609375 -1.39453125 1.24609375 0 0 Z " fill="#F7B258" transform="translate(389,128)"/>
<path d="M0 0 C0.33 0 0.66 0 1 0 C1.12406007 4.03825066 1.21455045 8.07575638 1.2746582 12.11547852 C1.29972617 13.48807102 1.33379082 14.86053102 1.37719727 16.23266602 C1.43817531 18.21050696 1.46361009 20.18934184 1.48828125 22.16796875 C1.51446533 23.35672607 1.54064941 24.5454834 1.56762695 25.77026367 C0.84301484 29.89322867 -0.85080515 31.35641983 -4 34 C-4 33.01 -4 32.02 -4 31 C-3.34 31 -2.68 31 -2 31 C-2 29.68 -2 28.36 -2 27 C-1.34 27 -0.68 27 0 27 C0 18.09 0 9.18 0 0 Z " fill="#55BE28" transform="translate(351,96)"/>
<path d="M0 0 C0.61875 0.474375 1.2375 0.94875 1.875 1.4375 C6.16105676 3.58052838 10.26600709 3.73342564 15 4 C15 3.34 15 2.68 15 2 C16.65 2 18.3 2 20 2 C16.27711179 5.8921104 16.27711179 5.8921104 13.01171875 6.16796875 C4.58208955 6.23880597 4.58208955 6.23880597 1 4 C0.1875 1.875 0.1875 1.875 0 0 Z " fill="#7FCE5B" transform="translate(327,128)"/>
<path d="M0 0 C2.07776754 1.69197516 2.92301562 2.59704571 3.43359375 5.26953125 C3.44267313 11.18020636 2.92537144 14.49736805 -1 19 C-1.66 19.33 -2.32 19.66 -3 20 C-3 19.01 -3 18.02 -3 17 C-2.34 16.67 -1.68 16.34 -1 16 C-0.52907686 12.79240571 -0.52907686 12.79240571 -0.375 9.0625 C-0.30023438 7.79535156 -0.22546875 6.52820313 -0.1484375 5.22265625 C-0.06830384 3.48291236 0 1.74158842 0 0 Z " fill="#F6AA46" transform="translate(463,91)"/>
<path d="M0 0 C2.64 0 5.28 0 8 0 C8 0.66 8 1.32 8 2 C10.65228812 3.07525194 13.28368454 4.09456151 16 5 C16 5.66 16 6.32 16 7 C18.97 7.495 18.97 7.495 22 8 C19.14008979 9.18364705 18.11907897 9.04859351 15.1953125 7.85546875 C14.18210937 7.30503906 13.16890625 6.75460938 12.125 6.1875 C8.13928241 4.04173644 4.33319132 2.32582719 0 1 C0 0.67 0 0.34 0 0 Z " fill="#963DF1" transform="translate(428,237)"/>
<path d="M0 0 C1.21816406 0.03480469 1.21816406 0.03480469 2.4609375 0.0703125 C3.68683594 0.09738281 3.68683594 0.09738281 4.9375 0.125 C5.87722656 0.15980469 5.87722656 0.15980469 6.8359375 0.1953125 C6.8359375 0.8553125 6.8359375 1.5153125 6.8359375 2.1953125 C8.0115625 2.3809375 8.0115625 2.3809375 9.2109375 2.5703125 C11.8359375 3.1953125 11.8359375 3.1953125 13.8359375 5.1953125 C5.9609375 4.3203125 5.9609375 4.3203125 4.8359375 3.1953125 C3.32124302 2.96338385 1.79839188 2.78316012 0.2734375 2.6328125 C-0.55285156 2.54902344 -1.37914062 2.46523437 -2.23046875 2.37890625 C-2.86855469 2.31832031 -3.50664062 2.25773438 -4.1640625 2.1953125 C-2.1640625 0.1953125 -2.1640625 0.1953125 0 0 Z " fill="#9C4CEF" transform="translate(399.1640625,190.8046875)"/>
<path d="M0 0 C0.66 0.33 1.32 0.66 2 1 C-2.29 5.29 -6.58 9.58 -11 14 C-11 9.40845608 -8.09282279 7.18698368 -5 4 C-3.3719908 2.61973133 -1.71956118 1.26438322 0 0 Z " fill="#3D3D3D" transform="translate(118,186)"/>
<path d="M0 0 C0.66 0.33 1.32 0.66 2 1 C0.6875 3.5 0.6875 3.5 -1 6 C-1.99 6 -2.98 6 -4 6 C-4.33 8.97 -4.66 11.94 -5 15 C-5.33 15 -5.66 15 -6 15 C-5.78943471 5.14171603 -5.78943471 5.14171603 -2.4375 1.875 C-1.633125 1.25625 -0.82875 0.6375 0 0 Z " fill="#AA63F5" transform="translate(393,193)"/>
<path d="M0 0 C0.66 0 1.32 0 2 0 C2 4.62 2 9.24 2 14 C-1 11 -1 11 -1.07421875 8.30078125 C-0.94660156 7.31464844 -0.81898438 6.32851562 -0.6875 5.3125 C-0.56761719 4.31863281 -0.44773437 3.32476562 -0.32421875 2.30078125 C-0.21722656 1.54152344 -0.11023438 0.78226563 0 0 Z " fill="#821EEF" transform="translate(389,199)"/>
<path d="M0 0 C1 2 1 2 0.5 4.3125 C-1.56679911 8.01551507 -4.46289137 9.77748522 -8 12 C-8.66 11.67 -9.32 11.34 -10 11 C-9.44570313 10.54109375 -8.89140625 10.0821875 -8.3203125 9.609375 C-7.59585937 8.99578125 -6.87140625 8.3821875 -6.125 7.75 C-5.04605469 6.84507813 -5.04605469 6.84507813 -3.9453125 5.921875 C-2.02947882 4.02912366 -1.03550955 2.46342273 0 0 Z " fill="#FEE5BF" transform="translate(465,104)"/>
<path d="M0 0 C0.66 0.33 1.32 0.66 2 1 C1.38125 1.0825 0.7625 1.165 0.125 1.25 C-0.57625 1.4975 -1.2775 1.745 -2 2 C-2.309375 2.66 -2.61875 3.32 -2.9375 4 C-3.288125 4.66 -3.63875 5.32 -4 6 C-6.625 6.75 -6.625 6.75 -9 7 C-3.51752022 1.21293801 -3.51752022 1.21293801 0 0 Z " fill="#F7AC4A" transform="translate(444,87)"/>
<path d="M0 0 C0.33 0 0.66 0 1 0 C1.05410687 1.77049689 1.09284119 3.54146849 1.125 5.3125 C1.14820313 6.29863281 1.17140625 7.28476563 1.1953125 8.30078125 C1 11 1 11 -1 14 C-1.99 13.67 -2.98 13.34 -4 13 C-3.525625 12.525625 -3.05125 12.05125 -2.5625 11.5625 C-0.31923904 7.88355203 -0.26260422 4.2378888 0 0 Z " fill="#DEBDFD" transform="translate(468,228)"/>
<path d="M0 0 C3.93673644 1.31224548 6.22719294 2.91910327 9 6 C6.36 5.34 3.72 4.68 1 4 C0.67 2.68 0.34 1.36 0 0 Z " fill="#9B49F0" transform="translate(424,201)"/>
<path d="M0 0 C0.66 0.33 1.32 0.66 2 1 C0.68 2.65 -0.64 4.3 -2 6 C-3.32 5.67 -4.64 5.34 -6 5 C-4.02 3.35 -2.04 1.7 0 0 Z " fill="#FEE2B3" transform="translate(433,132)"/>
<path d="M0 0 C1.32 0.33 2.64 0.66 4 1 C1.69 2.65 -0.62 4.3 -3 6 C-3.33 5.01 -3.66 4.02 -4 3 C-2.25 1.4375 -2.25 1.4375 0 0 Z " fill="#F79C2C" transform="translate(433,129)"/>
<path d="M0 0 C0.33 0 0.66 0 1 0 C1.3125 2.1875 1.3125 2.1875 1 5 C-1.5 7.8125 -1.5 7.8125 -4 10 C-4 9.01 -4 8.02 -4 7 C-3.34 7 -2.68 7 -2 7 C-2 5.68 -2 4.36 -2 3 C-1.34 3 -0.68 3 0 3 C0 2.01 0 1.02 0 0 Z " fill="#63BF39" transform="translate(351,120)"/>
</svg>
